<svg viewBox="0 0 800 500" xmlns="http://www.w3.org/2000/svg" font-family="Inter, sans-serif">
  <rect width="800" height="500" fill="#0B0F14"/>
  <rect width="180" height="500" fill="#121821"/>
  <rect x="16" y="16" width="148" height="32" rx="6" fill="#19202a"/>
  <text x="30" y="37" fill="#FFFFFF" font-size="16" font-weight="700" font-family="Outfit">debbit</text>
  <rect x="20" y="81" width="10" height="10" rx="2" fill="#6B7280"/>
  <text x="38" y="91" fill="#6B7280" font-size="12">Overview</text>
  <rect x="12" y="110" width="156" height="32" rx="6" fill="#9D4EDD" opacity="0.2"/>
  <rect x="20" y="121" width="10" height="10" rx="2" fill="#9D4EDD"/>
  <text x="38" y="131" fill="#9D4EDD" font-size="12">Inventory</text>
  <rect x="20" y="161" width="10" height="10" rx="2" fill="#6B7280"/>
  <text x="38" y="171" fill="#6B7280" font-size="12">Transactions</text>
  <rect x="20" y="201" width="10" height="10" rx="2" fill="#6B7280"/>
  <text x="38" y="211" fill="#6B7280" font-size="12">Invoices</text>
  <rect x="20" y="241" width="10" height="10" rx="2" fill="#6B7280"/>
  <text x="38" y="251" fill="#6B7280" font-size="12">Ledger</text>
  <rect x="20" y="281" width="10" height="10" rx="2" fill="#ED9CB1"/>
  <text x="38" y="291" fill="#ED9CB1" font-size="12">AI CFO</text>
  <text x="200" y="40" fill="#FFFFFF" font-size="20" font-weight="700">Inventory Management</text>
  <text x="200" y="58" fill="#6B7280" font-size="11">FIFO Batch Tracking · Real-time Stock Levels</text>
  <rect x="196" y="75" width="100" height="70" rx="8" fill="#121821" stroke="rgba(255,255,255,0.08)" stroke-width="1"/>
  <text x="210" y="98" fill="#9CA3AF" font-size="9">Total SKUs</text>
  <text x="210" y="120" fill="#FFFFFF" font-size="22" font-weight="700">142</text>
  <text x="210" y="136" fill="#10B981" font-size="9">Active items</text>
  <rect x="306" y="75" width="100" height="70" rx="8" fill="#121821" stroke="rgba(255,255,255,0.08)" stroke-width="1"/>
  <text x="320" y="98" fill="#9CA3AF" font-size="9">Low Stock</text>
  <text x="320" y="120" fill="#F59E0B" font-size="22" font-weight="700">12</text>
  <text x="320" y="136" fill="#F59E0B" font-size="9">Need reorder</text>
  <rect x="416" y="75" width="100" height="70" rx="8" fill="#121821" stroke="rgba(255,255,255,0.08)" stroke-width="1"/>
  <text x="430" y="98" fill="#9CA3AF" font-size="9">Expiring Soon</text>
  <text x="430" y="120" fill="#EF4444" font-size="22" font-weight="700">5</text>
  <text x="430" y="136" fill="#EF4444" font-size="9">Within 3 days</text>
  <rect x="526" y="75" width="130" height="70" rx="8" fill="#121821" stroke="rgba(255,255,255,0.08)" stroke-width="1"/>
  <text x="540" y="98" fill="#9CA3AF" font-size="9">Stock Value</text>
  <text x="540" y="120" fill="#FFFFFF" font-size="18" font-weight="700">RM 8,420</text>
  <text x="540" y="136" fill="#9D4EDD" font-size="9">Total inventory cost</text>
  <rect x="196" y="160" width="582" height="240" rx="8" fill="#121821" stroke="rgba(255,255,255,0.08)" stroke-width="1"/>
  <text x="212" y="182" fill="#FFFFFF" font-size="13" font-weight="600">Stock Items</text>
  <rect x="480" y="168" width="120" height="22" rx="4" fill="#19202a" stroke="rgba(255,255,255,0.08)" stroke-width="1"/>
  <text x="492" y="183" fill="#6B7280" font-size="9">Search inventory...</text>
  <rect x="196" y="195" width="582" height="22" fill="#19202a"/>
  <text x="212" y="210" fill="#6B7280" font-size="9" font-weight="600">ITEM</text>
  <text x="340" y="210" fill="#6B7280" font-size="9" font-weight="600">BATCH</text>
  <text x="420" y="210" fill="#6B7280" font-size="9" font-weight="600">STOCK</text>
  <text x="490" y="210" fill="#6B7280" font-size="9" font-weight="600">EXPIRY</text>
  <text x="560" y="210" fill="#6B7280" font-size="9" font-weight="600">COST/UNIT</text>
  <text x="660" y="210" fill="#6B7280" font-size="9" font-weight="600">STATUS</text>
  <line x1="196" y1="217" x2="778" y2="217" stroke="rgba(255,255,255,0.05)" stroke-width="1"/>
  <text x="212" y="232" fill="#FFFFFF" font-size="10">Arabica Coffee Beans</text>
  <text x="340" y="232" fill="#9CA3AF" font-size="10">#CB-0041</text>
  <text x="420" y="232" fill="#FFFFFF" font-size="10">4.2 kg</text>
  <text x="490" y="232" fill="#9CA3AF" font-size="10">15 Jun 2026</text>
  <text x="560" y="232" fill="#9CA3AF" font-size="10">RM 28.50/kg</text>
  <rect x="658" y="224" width="44" height="14" rx="7" fill="rgba(16,185,129,0.15)"/>
  <text x="668" y="234" fill="#10B981" font-size="8">In Stock</text>
  <line x1="196" y1="239" x2="778" y2="239" stroke="rgba(255,255,255,0.05)" stroke-width="1"/>
  <text x="212" y="254" fill="#FFFFFF" font-size="10">Full Cream Milk</text>
  <text x="340" y="254" fill="#9CA3AF" font-size="10">#ML-0802</text>
  <text x="420" y="254" fill="#F59E0B" font-size="10">3 cartons</text>
  <text x="490" y="254" fill="#EF4444" font-size="10">31 May 2026</text>
  <text x="560" y="254" fill="#9CA3AF" font-size="10">RM 6.80/unit</text>
  <rect x="650" y="246" width="60" height="14" rx="7" fill="rgba(239,68,68,0.15)"/>
  <text x="659" y="256" fill="#EF4444" font-size="8">Expiring Soon</text>
  <line x1="196" y1="261" x2="778" y2="261" stroke="rgba(255,255,255,0.05)" stroke-width="1"/>
  <text x="212" y="276" fill="#FFFFFF" font-size="10">Brown Sugar (1kg)</text>
  <text x="340" y="276" fill="#9CA3AF" font-size="10">#SG-0019</text>
  <text x="420" y="276" fill="#FFFFFF" font-size="10">8 bags</text>
  <text x="490" y="276" fill="#9CA3AF" font-size="10">30 Sep 2026</text>
  <text x="560" y="276" fill="#9CA3AF" font-size="10">RM 4.20/bag</text>
  <rect x="658" y="268" width="44" height="14" rx="7" fill="rgba(16,185,129,0.15)"/>
  <text x="668" y="278" fill="#10B981" font-size="8">In Stock</text>
  <line x1="196" y1="283" x2="778" y2="283" stroke="rgba(255,255,255,0.05)" stroke-width="1"/>
  <text x="212" y="298" fill="#FFFFFF" font-size="10">Oat Milk (1L)</text>
  <text x="340" y="298" fill="#9CA3AF" font-size="10">#OT-0055</text>
  <text x="420" y="298" fill="#F59E0B" font-size="10">2 cartons</text>
  <text x="490" y="298" fill="#9CA3AF" font-size="10">12 Jun 2026</text>
  <text x="560" y="298" fill="#9CA3AF" font-size="10">RM 8.90/unit</text>
  <rect x="652" y="290" width="56" height="14" rx="7" fill="rgba(245,158,11,0.15)"/>
  <text x="660" y="300" fill="#F59E0B" font-size="8">Low Stock</text>
  <line x1="196" y1="305" x2="778" y2="305" stroke="rgba(255,255,255,0.05)" stroke-width="1"/>
  <text x="212" y="320" fill="#FFFFFF" font-size="10">Vanilla Syrup</text>
  <text x="340" y="320" fill="#9CA3AF" font-size="10">#VS-0033</text>
  <text x="420" y="320" fill="#FFFFFF" font-size="10">6 bottles</text>
  <text x="490" y="320" fill="#9CA3AF" font-size="10">Aug 2026</text>
  <text x="560" y="320" fill="#9CA3AF" font-size="10">RM 15.00/btl</text>
  <rect x="658" y="312" width="44" height="14" rx="7" fill="rgba(16,185,129,0.15)"/>
  <text x="668" y="322" fill="#10B981" font-size="8">In Stock</text>
  <line x1="196" y1="327" x2="778" y2="327" stroke="rgba(255,255,255,0.05)" stroke-width="1"/>
  <text x="212" y="342" fill="#FFFFFF" font-size="10">Espresso Cups (50pcs)</text>
  <text x="340" y="342" fill="#9CA3AF" font-size="10">#EC-0011</text>
  <text x="420" y="342" fill="#F59E0B" font-size="10">1 box</text>
  <text x="490" y="342" fill="#9CA3AF" font-size="10">N/A</text>
  <text x="560" y="342" fill="#9CA3AF" font-size="10">RM 22.00/box</text>
  <rect x="652" y="334" width="56" height="14" rx="7" fill="rgba(245,158,11,0.15)"/>
  <text x="660" y="344" fill="#F59E0B" font-size="8">Low Stock</text>
  <rect x="196" y="415" width="582" height="70" rx="8" fill="#121821" stroke="rgba(255,255,255,0.08)" stroke-width="1"/>
  <text x="212" y="434" fill="#FFFFFF" font-size="11" font-weight="600">Top Category Stock Levels</text>
  <text x="212" y="452" fill="#9CA3AF" font-size="9">Coffee</text>
  <rect x="260" y="444" width="200" height="8" rx="4" fill="#19202a"/>
  <rect x="260" y="444" width="156" height="8" rx="4" fill="#9D4EDD"/>
  <text x="466" y="452" fill="#9CA3AF" font-size="9">78%</text>
  <text x="212" y="465" fill="#9CA3AF" font-size="9">Dairy</text>
  <rect x="260" y="457" width="200" height="8" rx="4" fill="#19202a"/>
  <rect x="260" y="457" width="50" height="8" rx="4" fill="#EF4444"/>
  <text x="466" y="465" fill="#EF4444" font-size="9">25%</text>
  <text x="212" y="478" fill="#9CA3AF" font-size="9">Syrups</text>
  <rect x="260" y="470" width="200" height="8" rx="4" fill="#19202a"/>
  <rect x="260" y="470" width="120" height="8" rx="4" fill="#ED9CB1"/>
  <text x="466" y="478" fill="#9CA3AF" font-size="9">60%</text>
</svg>